<?xml version="1.0" encoding="utf-8"?>
<!-- Svg Vector Icons : http://www.onlinewebfonts.com/icon -->
<!DOCTYPE svg PUBLIC "-//W3C//DTD SVG 1.1//EN" "http://www.w3.org/Graphics/SVG/1.1/DTD/svg11.dtd">
<svg version="1.1" xmlns="http://www.w3.org/2000/svg" xmlns:xlink="http://www.w3.org/1999/xlink" x="0px" y="0px" viewBox="0 0 1000 1000" enable-background="new 0 0 1000 1000" xml:space="preserve">
<metadata> Svg Vector Icons : http://www.onlinewebfonts.com/icon </metadata>
<g><path d="M717.5,620.4c-54.8,2.6-143.5,56-203.7,56c-55.2,0-132.2-64.4-187.5-64.4c-54.2,0-135.2,64.4-187.8,64.4c-22,0-60.8-14.9-91.6-28.5C98.6,755,200.6,836.7,325,867.6v17.6c0,16.3,13.3,29.7,29.7,29.7h192.1c16.3,0,29.7-13.3,29.7-29.7v-21c0-1.8-0.2-3.4-0.5-5.1C687.3,823,777.7,745.3,825.1,646C787.8,633,742,619.2,717.5,620.4z"/><path d="M987.4,311.1L990,262l-351.9-18.6v-85.2L989,134.3l-3.3-49.1l-347.6,23.7V87.7h-59.4h-20.2h-39.2H499h-39.2h-20.2h-39.2h-20.2h-59.4v42.9l-145.1,9.9l3.3,49.1l141.7-9.7v46.7l-152.3-8.1l-2.6,49.1l154.9,8.2v144.1H47.3c-18.3,0-33.3,14-35.4,31.7h-0.2c-1.1,11.5-1.8,23.1-1.8,34.9c0,42.7,7.4,83.8,20.9,122.3c32,14.9,81.8,35.9,107.8,35.9c43.4,0,134-62.2,188.5-62.2c58.2,0,134.5,62.2,188.7,62.2c59,0,145-56,200.3-56c30.7,0,83,16.4,121,29.9c15.8-41.3,24.5-85.7,24.5-132.1c0-11.8-0.7-23.4-1.8-34.9h-0.2c-2.1-17.8-17.1-31.7-35.4-31.7H638.1V292.6L987.4,311.1z M379.6,411.2h-38.1V276.9l38.1,2V411.2z M379.6,229.7l-38.1-2V108.4h38.1V229.7z M439,411.2h-38.1V280.1l38.1,2V411.2z M439,232.8l-38.1-2V108.4H439V232.8z M498.4,411.2h-38.1V283.2l38.1,2V411.2z M498.4,236l-38.1-2V108.4h38.1V236z M557.9,411.2h-38.1V286.4l38.1,2V411.2z M557.9,239.1l-38.1-2V108.4h38.1V239.1z M617.3,411.2h-38.1V289.5l38.1,2V411.2z M617.3,242.3l-38.1-2V108.4h38.1V242.3z"/></g>
</svg>